# xmcd
#
# Track frame offsets: 
#        150
#        20340
#        34267
#        49750
#        65807
#        83347
#        105500
#        121637
#        141100
#        157712
#
# Disc length: 2508 seconds
#
# Revision: 3
# Processed by: cddbd v1.5.1PL2 Copyright (c) Steve Scherf et al.
# Submitted via: ExactAudioCopy v0.95b3
#
DISCID=7009ca0a
DTITLE=David Lynn Jones - Mixed Emotions
DYEAR=1992
DGENRE=country
TTITLE0=The Sailor
TTITLE1=Louise
TTITLE2=Talk To Me
TTITLE3=Every Road Is An Open Door
TTITLE4=Her Love Don't Lie
TTITLE5=Even One
TTITLE6=Heart Like A Roadsign,Head Like A Wheel
TTITLE7=The Land Of Ala
TTITLE8=Judgement Day
TTITLE9=What Are We Livin' For
EXTD=more info - MillenniumMusicProjectFormat - SYNTAX=SongTitle{Subtit
EXTD=le}[miscInfo](Lyricist;Composer;Date,Artist,Location,State,Countr
EXTD=y)
EXTT0=
EXTT1=
EXTT2=
EXTT3=
EXTT4=
EXTT5=
EXTT6=
EXTT7=
EXTT8=
EXTT9=
PLAYORDER=
